<svg width="804" height="142" viewBox="0 0 804 142" fill="none" xmlns="http://www.w3.org/2000/svg">
<path d="M38.881 43.3889C25.9319 43.3889 16.9048 36.4129 16.9048 30.1468C16.9048 23.8808 25.9319 16.9048 38.881 16.9048C51.83 16.9048 60.8571 23.8808 60.8571 30.1468H77.7619C77.7619 13.2421 60.6881 0 38.881 0C17.0738 0 0 13.2421 0 30.1468C0 47.0516 17.0738 60.2937 38.881 60.2937C51.83 60.2937 60.8571 67.2697 60.8571 73.5357C60.8571 79.8017 51.83 86.7778 38.881 86.7778C25.9319 86.7778 16.9048 79.8017 16.9048 73.5357H0C0 90.4405 17.0738 103.683 38.881 103.683C60.6881 103.683 77.7619 90.4405 77.7619 73.5357C77.7619 56.631 60.6881 43.3889 38.881 43.3889Z" fill="white"/>
<path d="M122.278 103.682C103.942 103.682 89.0317 88.7723 89.0317 70.4363V25.9204H105.937V70.4363C105.937 79.4522 113.262 86.7776 122.278 86.7776C131.294 86.7776 138.619 79.4522 138.619 70.4363V25.9204H155.524V70.4363C155.524 88.7723 140.614 103.682 122.278 103.682Z" fill="white"/>
<path d="M205.675 25.9204C197.527 25.9204 189.953 28.4449 183.698 32.7499V25.9204H166.794V129.603H183.698V96.8528C189.953 101.158 197.527 103.682 205.675 103.682C227.11 103.682 244.556 86.2366 244.556 64.8014C244.556 43.3661 227.11 25.9204 205.675 25.9204ZM205.675 86.7776C193.56 86.7776 183.698 76.9164 183.698 64.8014C183.698 52.6863 193.56 42.8252 205.675 42.8252C217.79 42.8252 227.651 52.6863 227.651 64.8014C227.651 76.9164 217.79 86.7776 205.675 86.7776Z" fill="white"/>
<path d="M333.587 69.3093V59.1664C333.587 40.8304 318.677 25.9204 300.341 25.9204H289.071C270.735 25.9204 255.825 40.8304 255.825 59.1664V70.4363C255.825 88.7723 270.735 103.682 289.071 103.682H300.341C315.139 103.682 327.705 93.9677 331.998 80.5791H313.133C310.135 84.3433 305.525 86.7776 300.341 86.7776H289.071C280.056 86.7776 272.73 79.4522 272.73 70.4363V69.3093H333.587ZM289.071 42.8252H300.341C306.934 42.8252 312.625 46.7583 315.195 52.4045H274.207C276.787 46.7583 282.467 42.8252 289.06 42.8252H289.071Z" fill="white"/>
<path d="M384.865 25.8647C376.266 25.8647 368.298 28.6033 361.762 33.2352V25.8647H344.857V103.627H361.762V65.8727C361.762 53.1378 372.13 42.7695 384.865 42.7695H393.317V25.8647H384.865Z" fill="white"/>
<path d="M451.301 0.744141H432.773L393.904 104.427H411.958L423.893 72.5894H460.193L472.128 104.427H490.182L451.301 0.744141ZM430.238 55.6846L442.037 24.1854L453.848 55.6846H430.238Z" fill="white"/>
<path d="M551.095 25.9209V32.7392C544.84 28.4341 537.267 25.9097 529.119 25.9097C507.684 25.9097 490.238 43.3554 490.238 64.7906C490.238 86.2259 507.684 103.672 529.119 103.672C537.267 103.672 544.84 101.147 551.095 96.842V108.574C551.095 117.68 543.691 125.084 534.585 125.084H498.69V141.989H534.585C553.011 141.989 568 127 568 108.574V25.9209H551.095ZM529.119 86.7781C517.004 86.7781 507.143 76.917 507.143 64.8019C507.143 52.6868 517.004 42.8257 529.119 42.8257C541.234 42.8257 551.095 52.6868 551.095 64.8019C551.095 76.917 541.234 86.7781 529.119 86.7781Z" fill="white"/>
<path d="M657.032 69.3093V59.1664C657.032 40.8304 642.122 25.9204 623.786 25.9204H612.516C594.18 25.9204 579.27 40.8304 579.27 59.1664V70.4363C579.27 88.7723 594.18 103.682 612.516 103.682H623.786C638.583 103.682 651.149 93.9677 655.443 80.5791H636.577C633.579 84.3433 628.97 86.7776 623.786 86.7776H612.516C603.5 86.7776 596.175 79.4522 596.175 70.4363V69.3093H657.032ZM612.516 42.8252H623.786C630.379 42.8252 636.07 46.7583 638.639 52.4045H597.651C600.232 46.7583 605.912 42.8252 612.505 42.8252H612.516Z" fill="white"/>
<path d="M734.794 103.682H717.889V59.1664C717.889 50.1506 710.563 42.8252 701.548 42.8252C692.532 42.8252 685.206 50.1506 685.206 59.1664V103.682H668.302V59.1664C668.302 40.8304 683.212 25.9204 701.548 25.9204C719.884 25.9204 734.794 40.8304 734.794 59.1664V103.682Z" fill="white"/>
<path d="M803.54 42.2617V25.3569H783.254V7.88867H766.349V25.3569H746.063V42.2617H766.349V79.5085C766.349 92.8407 777.191 103.682 790.523 103.682H803.54V86.7776H790.523C786.522 86.7776 783.254 83.5206 783.254 79.5085V42.2617H803.54Z" fill="white"/>
</svg>
