<svg xmlns="http://www.w3.org/2000/svg" width="24" height="24" viewBox="0 0 24 24" fill="none">
<path d="M10.9437 2.06877C8.94303 0.907546 6.36874 1.59314 5.20752 3.6078C4.84376 4.25137 4.6479 4.96489 4.6479 5.70639V7.56718C3.78048 7.90295 3.03896 8.47656 2.49333 9.21807C1.80778 10.1554 1.5 11.3027 1.5 12.5198C1.5 14.1567 2.33944 15.5978 3.5986 16.4512V17.7663C3.5986 20.3686 5.71118 22.4952 8.31345 22.4952C9.25082 22.4952 10.1602 22.2154 10.9437 21.6977V17.7663C10.9437 16.3673 10.5939 15.4719 10.0483 14.8703C9.47466 14.2547 8.55131 13.793 7.11027 13.5551L7.46004 11.4845C8.83112 11.7084 10.0203 12.1421 10.9577 12.8696V2.06877H10.9437ZM13.0423 2.06877V12.8696C13.9797 12.1421 15.1829 11.7224 16.54 11.4845L16.8897 13.5551C15.4347 13.793 14.5113 14.2547 13.9517 14.8703C13.3921 15.4719 13.0563 16.3673 13.0563 17.7663V21.6977C15.2249 23.1527 18.1629 22.5651 19.6039 20.3966C20.1216 19.6131 20.4014 18.7037 20.4014 17.7663V16.4512C21.7165 15.5838 22.5 14.1008 22.5 12.5198C22.5 11.2887 22.1922 10.1554 21.5066 9.21807C20.961 8.47656 20.2055 7.90295 19.3521 7.56718V5.70639C19.3521 3.38394 17.4774 1.5092 15.1549 1.5092C14.4134 1.5092 13.6999 1.70501 13.0563 2.06877H13.0423Z" fill="#ffffff"/>
</svg>