<svg width="1044" height="142" viewBox="0 0 1044 142" fill="none" xmlns="http://www.w3.org/2000/svg">
<path d="M202.857 50.7227C202.857 68.7064 193.429 84.4987 179.193 93.4823C174.521 96.46 169.309 98.685 163.76 100.007H163.743C159.88 100.943 155.866 101.429 151.717 101.429C137.465 101.429 124.561 95.6403 115.302 86.2887L115.099 86.0713L111.979 82.6251L111.928 82.5581L111.844 82.4578L99.1263 68.2882L88.3653 56.2934L70.3853 36.2687L70.2673 36.1349L70.2335 36.0847C69.542 35.1813 68.7661 34.3281 67.9396 33.5251L67.8384 33.4415C63.5037 29.2927 57.6172 26.7666 51.1403 26.7666C47.9525 26.7666 44.8996 27.3855 42.1166 28.5064C33.2615 32.053 26.9871 40.6685 26.9871 50.7227C26.9871 63.9219 37.8324 74.662 51.1403 74.662C60.2653 74.662 68.2432 69.6098 72.3419 62.1654L81.6523 72.5541L90.7941 82.7254C81.4162 94.1347 67.13 101.429 51.1403 101.429C22.9053 101.429 0.000244141 78.7272 0.000244141 50.7227C0.000244141 32.7389 9.44564 16.9466 23.6643 7.94633C28.3533 4.96854 33.5483 2.74357 39.0974 1.42197H39.1143C42.9768 0.485144 46.9911 0 51.1403 0C65.2578 0 78.0428 5.67117 87.3027 14.8554L87.5051 15.0897L91.0134 18.9875L91.1821 19.1716L103.748 33.1571L114.509 45.1519L132.658 65.3606L132.742 65.4777C133.366 66.2974 134.057 67.0503 134.8 67.7696L134.884 67.8365C139.236 72.0523 145.173 74.662 151.717 74.662C154.905 74.662 157.958 74.043 160.741 72.9222C169.613 69.3756 175.87 60.7601 175.87 50.7227C175.87 37.5067 165.042 26.7666 151.717 26.7666C142.592 26.7666 134.631 31.8188 130.532 39.2632L121.205 28.8912L112.063 18.7031C121.441 7.29389 135.727 0 151.717 0C179.969 0 202.857 22.7014 202.857 50.7227Z" fill="white"/>
<path d="M278.881 43.3889C265.932 43.3889 256.905 36.4129 256.905 30.1468C256.905 23.8808 265.932 16.9048 278.881 16.9048C291.83 16.9048 300.857 23.8808 300.857 30.1468H317.762C317.762 13.2421 300.688 0 278.881 0C257.074 0 240 13.2421 240 30.1468C240 47.0516 257.074 60.2937 278.881 60.2937C291.83 60.2937 300.857 67.2697 300.857 73.5357C300.857 79.8017 291.83 86.7778 278.881 86.7778C265.932 86.7778 256.905 79.8017 256.905 73.5357H240C240 90.4405 257.074 103.683 278.881 103.683C300.688 103.683 317.762 90.4405 317.762 73.5357C317.762 56.631 300.688 43.3889 278.881 43.3889Z" fill="white"/>
<path d="M362.278 103.682C343.942 103.682 329.032 88.7723 329.032 70.4363V25.9204H345.937V70.4363C345.937 79.4522 353.262 86.7776 362.278 86.7776C371.294 86.7776 378.619 79.4522 378.619 70.4363V25.9204H395.524V70.4363C395.524 88.7723 380.614 103.682 362.278 103.682Z" fill="white"/>
<path d="M445.675 25.9204C437.527 25.9204 429.953 28.4449 423.698 32.7499V25.9204H406.794V129.603H423.698V96.8528C429.953 101.158 437.527 103.682 445.675 103.682C467.11 103.682 484.556 86.2366 484.556 64.8014C484.556 43.3661 467.11 25.9204 445.675 25.9204ZM445.675 86.7776C433.56 86.7776 423.698 76.9164 423.698 64.8014C423.698 52.6863 433.56 42.8252 445.675 42.8252C457.79 42.8252 467.651 52.6863 467.651 64.8014C467.651 76.9164 457.79 86.7776 445.675 86.7776Z" fill="white"/>
<path d="M573.587 69.3093V59.1664C573.587 40.8304 558.677 25.9204 540.341 25.9204H529.071C510.735 25.9204 495.825 40.8304 495.825 59.1664V70.4363C495.825 88.7723 510.735 103.682 529.071 103.682H540.341C555.139 103.682 567.705 93.9677 571.998 80.5791H553.133C550.135 84.3433 545.525 86.7776 540.341 86.7776H529.071C520.056 86.7776 512.73 79.4522 512.73 70.4363V69.3093H573.587ZM529.071 42.8252H540.341C546.934 42.8252 552.625 46.7583 555.195 52.4045H514.207C516.787 46.7583 522.467 42.8252 529.06 42.8252H529.071Z" fill="white"/>
<path d="M624.865 25.8647C616.266 25.8647 608.298 28.6033 601.762 33.2352V25.8647H584.857V103.627H601.762V65.8727C601.762 53.1378 612.13 42.7695 624.865 42.7695H633.317V25.8647H624.865Z" fill="white"/>
<path d="M691.301 0.744141H672.773L633.904 104.427H651.958L663.893 72.5894H700.193L712.128 104.427H730.182L691.301 0.744141ZM670.238 55.6846L682.037 24.1854L693.848 55.6846H670.238Z" fill="white"/>
<path d="M791.095 25.9209V32.7392C784.84 28.4341 777.267 25.9097 769.119 25.9097C747.684 25.9097 730.238 43.3554 730.238 64.7906C730.238 86.2259 747.684 103.672 769.119 103.672C777.267 103.672 784.84 101.147 791.095 96.842V108.574C791.095 117.68 783.691 125.084 774.585 125.084H738.69V141.989H774.585C793.011 141.989 808 127 808 108.574V25.9209H791.095ZM769.119 86.7781C757.004 86.7781 747.143 76.917 747.143 64.8019C747.143 52.6868 757.004 42.8257 769.119 42.8257C781.234 42.8257 791.095 52.6868 791.095 64.8019C791.095 76.917 781.234 86.7781 769.119 86.7781Z" fill="white"/>
<path d="M897.032 69.3093V59.1664C897.032 40.8304 882.122 25.9204 863.786 25.9204H852.516C834.18 25.9204 819.27 40.8304 819.27 59.1664V70.4363C819.27 88.7723 834.18 103.682 852.516 103.682H863.786C878.583 103.682 891.149 93.9677 895.443 80.5791H876.577C873.579 84.3433 868.97 86.7776 863.786 86.7776H852.516C843.5 86.7776 836.175 79.4522 836.175 70.4363V69.3093H897.032ZM852.516 42.8252H863.786C870.379 42.8252 876.07 46.7583 878.639 52.4045H837.651C840.232 46.7583 845.912 42.8252 852.505 42.8252H852.516Z" fill="white"/>
<path d="M974.794 103.682H957.889V59.1664C957.889 50.1506 950.563 42.8252 941.548 42.8252C932.532 42.8252 925.206 50.1506 925.206 59.1664V103.682H908.302V59.1664C908.302 40.8304 923.212 25.9204 941.548 25.9204C959.884 25.9204 974.794 40.8304 974.794 59.1664V103.682Z" fill="white"/>
<path d="M1043.54 42.2617V25.3569H1023.25V7.88867H1006.35V25.3569H986.063V42.2617H1006.35V79.5085C1006.35 92.8407 1017.19 103.682 1030.52 103.682H1043.54V86.7776H1030.52C1026.52 86.7776 1023.25 83.5206 1023.25 79.5085V42.2617H1043.54Z" fill="white"/>
</svg>
