<svg width="1928" height="180" viewBox="0 0 1928 180" fill="none" xmlns="http://www.w3.org/2000/svg">
<path d="M49.2857 55C32.8714 55 21.4286 46.1571 21.4286 38.2143C21.4286 30.2714 32.8714 21.4286 49.2857 21.4286C65.7 21.4286 77.1429 30.2714 77.1429 38.2143H98.5714C98.5714 16.7857 76.9286 0 49.2857 0C21.6429 0 0 16.7857 0 38.2143C0 59.6429 21.6429 76.4286 49.2857 76.4286C65.7 76.4286 77.1429 85.2714 77.1429 93.2143C77.1429 101.157 65.7 110 49.2857 110C32.8714 110 21.4286 101.157 21.4286 93.2143H0C0 114.643 21.6429 131.429 49.2857 131.429C76.9286 131.429 98.5714 114.643 98.5714 93.2143C98.5714 71.7857 76.9286 55 49.2857 55Z" fill="white"/>
<path d="M155 131.428C131.757 131.428 112.857 112.528 112.857 89.2855V32.8569H134.286V89.2855C134.286 100.714 143.571 110 155 110C166.429 110 175.714 100.714 175.714 89.2855V32.8569H197.143V89.2855C197.143 112.528 178.243 131.428 155 131.428Z" fill="white"/>
<path d="M260.714 32.8569C250.386 32.8569 240.786 36.0569 232.857 41.5141V32.8569H211.429V164.286H232.857V122.771C240.786 128.228 250.386 131.428 260.714 131.428C287.886 131.428 310 109.314 310 82.1427C310 54.9712 287.886 32.8569 260.714 32.8569ZM260.714 110C245.357 110 232.857 97.4998 232.857 82.1427C232.857 66.7855 245.357 54.2855 260.714 54.2855C276.071 54.2855 288.571 66.7855 288.571 82.1427C288.571 97.4998 276.071 110 260.714 110Z" fill="white"/>
<path d="M422.857 87.8569V74.9998C422.857 51.7569 403.957 32.8569 380.714 32.8569H366.429C343.186 32.8569 324.286 51.7569 324.286 74.9998V89.2855C324.286 112.528 343.186 131.428 366.429 131.428H380.714C399.471 131.428 415.4 119.114 420.843 102.143H396.929C393.129 106.914 387.286 110 380.714 110H366.429C355 110 345.714 100.714 345.714 89.2855V87.8569H422.857ZM366.429 54.2855H380.714C389.071 54.2855 396.286 59.2712 399.543 66.4284H347.586C350.857 59.2712 358.057 54.2855 366.414 54.2855H366.429Z" fill="white"/>
<path d="M487.857 32.7861C476.957 32.7861 466.857 36.2576 458.571 42.129V32.7861H437.143V131.358H458.571V83.5004C458.571 67.3576 471.714 54.2147 487.857 54.2147H498.571V32.7861H487.857Z" fill="white"/>
<path d="M572.071 0.942871H548.586L499.314 132.371H522.2L537.329 92.0143H583.343L598.471 132.371H621.357L572.071 0.942871ZM545.371 70.5857L560.329 30.6572L575.3 70.5857H545.371Z" fill="white"/>
<path d="M698.571 32.8575V41.5004C690.643 36.0433 681.043 32.8433 670.714 32.8433C643.543 32.8433 621.429 54.9575 621.429 82.129C621.429 109.3 643.543 131.415 670.714 131.415C681.043 131.415 690.643 128.215 698.571 122.758V137.629C698.571 149.172 689.186 158.558 677.643 158.558H632.143V179.986H677.643C701 179.986 720 160.986 720 137.629V32.8575H698.571ZM670.714 110C655.357 110 642.857 97.5004 642.857 82.1433C642.857 66.7861 655.357 54.2861 670.714 54.2861C686.071 54.2861 698.571 66.7861 698.571 82.1433C698.571 97.5004 686.071 110 670.714 110Z" fill="white"/>
<path d="M832.857 87.8569V74.9998C832.857 51.7569 813.957 32.8569 790.714 32.8569H776.428C753.186 32.8569 734.286 51.7569 734.286 74.9998V89.2855C734.286 112.528 753.186 131.428 776.428 131.428H790.714C809.471 131.428 825.4 119.114 830.843 102.143H806.928C803.128 106.914 797.286 110 790.714 110H776.428C765 110 755.714 100.714 755.714 89.2855V87.8569H832.857ZM776.428 54.2855H790.714C799.071 54.2855 806.286 59.2712 809.543 66.4284H757.586C760.857 59.2712 768.057 54.2855 776.414 54.2855H776.428Z" fill="white"/>
<path d="M931.429 131.428H910V74.9998C910 63.5712 900.714 54.2855 889.286 54.2855C877.857 54.2855 868.571 63.5712 868.571 74.9998V131.428H847.143V74.9998C847.143 51.7569 866.043 32.8569 889.286 32.8569C912.529 32.8569 931.429 51.7569 931.429 74.9998V131.428Z" fill="white"/>
<path d="M1018.57 53.5714V32.1429H992.857V10H971.429V32.1429H945.714V53.5714H971.429V100.786C971.429 117.686 985.171 131.429 1002.07 131.429H1018.57V110H1002.07C997 110 992.857 105.871 992.857 100.786V53.5714H1018.57Z" fill="white"/>
<g opacity="0.5">
<path d="M1168.74 88.2715C1162.84 101.514 1149.56 110.771 1134.16 110.771C1113.29 110.771 1096.3 93.7858 1096.3 72.9143V60.0572C1096.3 39.1858 1113.29 22.2001 1134.16 22.2001C1149.57 22.2001 1162.84 31.4572 1168.74 44.7001H1191.41C1184.63 19.4286 1161.54 0.771484 1134.16 0.771484C1101.47 0.771484 1074.87 27.3715 1074.87 60.0572V72.9143C1074.87 105.6 1101.47 132.2 1134.16 132.2C1161.54 132.2 1184.63 113.543 1191.41 88.2715H1168.74Z" fill="white"/>
<path d="M1251.29 131.428H1250.71C1226.06 131.428 1206 111.371 1206 86.7141V77.5712C1206 52.9141 1226.06 32.8569 1250.71 32.8569H1251.29C1275.94 32.8569 1296 52.9141 1296 77.5712V86.7141C1296 111.371 1275.94 131.428 1251.29 131.428ZM1250.71 54.2855C1237.87 54.2855 1227.43 64.7284 1227.43 77.5712V86.7141C1227.43 99.5569 1237.87 110 1250.71 110H1251.29C1264.13 110 1274.57 99.5569 1274.57 86.7141V77.5712C1274.57 64.7284 1264.13 54.2855 1251.29 54.2855H1250.71Z" fill="white"/>
<path d="M1402.43 32.8569C1391.79 32.8569 1382.17 37.2712 1375.29 44.3569C1368.4 37.2712 1358.79 32.8569 1348.14 32.8569C1327.27 32.8569 1310.29 49.8426 1310.29 70.7141V131.428H1331.71V70.7141C1331.71 61.6569 1339.09 54.2855 1348.14 54.2855C1357.2 54.2855 1364.57 61.6569 1364.57 70.7141V131.428H1386V70.7141C1386 61.6569 1393.37 54.2855 1402.43 54.2855C1411.49 54.2855 1418.86 61.6569 1418.86 70.7141V131.428H1440.29V70.7141C1440.29 49.8426 1423.3 32.8569 1402.43 32.8569Z" fill="white"/>
<path d="M1503.86 32.8569C1493.53 32.8569 1483.93 36.0569 1476 41.5141V32.8569H1454.57V164.286H1476V122.771C1483.93 128.228 1493.53 131.428 1503.86 131.428C1531.03 131.428 1553.14 109.314 1553.14 82.1427C1553.14 54.9712 1531.03 32.8569 1503.86 32.8569ZM1503.86 110C1488.5 110 1476 97.4998 1476 82.1427C1476 66.7855 1488.5 54.2855 1503.86 54.2855C1519.21 54.2855 1531.71 66.7855 1531.71 82.1427C1531.71 97.4998 1519.21 110 1503.86 110Z" fill="white"/>
<path d="M1609.57 131.428C1586.33 131.428 1567.43 112.528 1567.43 89.2855V32.8569H1588.86V89.2855C1588.86 100.714 1598.14 110 1609.57 110C1621 110 1630.29 100.714 1630.29 89.2855V32.8569H1651.71V89.2855C1651.71 112.528 1632.81 131.428 1609.57 131.428Z" fill="white"/>
<path d="M1738.86 53.5714V32.1429H1713.14V10H1691.71V32.1429H1666V53.5714H1691.71V100.786C1691.71 117.686 1705.46 131.429 1722.36 131.429H1738.86V110H1722.36C1717.29 110 1713.14 105.871 1713.14 100.786V53.5714H1738.86Z" fill="white"/>
<path d="M1851.71 87.8569V74.9998C1851.71 51.7569 1832.81 32.8569 1809.57 32.8569H1795.29C1772.04 32.8569 1753.14 51.7569 1753.14 74.9998V89.2855C1753.14 112.528 1772.04 131.428 1795.29 131.428H1809.57C1828.33 131.428 1844.26 119.114 1849.7 102.143H1825.79C1821.99 106.914 1816.14 110 1809.57 110H1795.29C1783.86 110 1774.57 100.714 1774.57 89.2855V87.8569H1851.71ZM1795.29 54.2855H1809.57C1817.93 54.2855 1825.14 59.2712 1828.4 66.4284H1776.44C1779.71 59.2712 1786.91 54.2855 1795.27 54.2855H1795.29Z" fill="white"/>
<path d="M1916.71 32.7861C1905.81 32.7861 1895.71 36.2576 1887.43 42.129V32.7861H1866V131.358H1887.43V83.5004C1887.43 67.3576 1900.57 54.2147 1916.71 54.2147H1927.43V32.7861H1916.71Z" fill="white"/>
</g>
</svg>
