<svg width="2249" height="180" viewBox="0 0 2249 180" fill="none" xmlns="http://www.w3.org/2000/svg">
<path d="M370.429 55C354.014 55 342.571 46.1571 342.571 38.2143C342.571 30.2714 354.014 21.4286 370.429 21.4286C386.843 21.4286 398.286 30.2714 398.286 38.2143H419.714C419.714 16.7857 398.071 0 370.429 0C342.786 0 321.143 16.7857 321.143 38.2143C321.143 59.6429 342.786 76.4286 370.429 76.4286C386.843 76.4286 398.286 85.2714 398.286 93.2143C398.286 101.157 386.843 110 370.429 110C354.014 110 342.571 101.157 342.571 93.2143H321.143C321.143 114.643 342.786 131.429 370.429 131.429C398.071 131.429 419.714 114.643 419.714 93.2143C419.714 71.7857 398.071 55 370.429 55Z" fill="white"/>
<path d="M476.143 131.428C452.9 131.428 434 112.528 434 89.2855V32.8569H455.429V89.2855C455.429 100.714 464.714 110 476.143 110C487.571 110 496.857 100.714 496.857 89.2855V32.8569H518.286V89.2855C518.286 112.528 499.386 131.428 476.143 131.428Z" fill="white"/>
<path d="M581.857 32.8569C571.529 32.8569 561.929 36.0569 554 41.5141V32.8569H532.571V164.286H554V122.771C561.929 128.228 571.529 131.428 581.857 131.428C609.029 131.428 631.143 109.314 631.143 82.1427C631.143 54.9712 609.029 32.8569 581.857 32.8569ZM581.857 110C566.5 110 554 97.4998 554 82.1427C554 66.7855 566.5 54.2855 581.857 54.2855C597.214 54.2855 609.714 66.7855 609.714 82.1427C609.714 97.4998 597.214 110 581.857 110Z" fill="white"/>
<path d="M744 87.8569V74.9998C744 51.7569 725.1 32.8569 701.857 32.8569H687.571C664.329 32.8569 645.429 51.7569 645.429 74.9998V89.2855C645.429 112.528 664.329 131.428 687.571 131.428H701.857C720.614 131.428 736.543 119.114 741.986 102.143H718.071C714.271 106.914 708.429 110 701.857 110H687.571C676.143 110 666.857 100.714 666.857 89.2855V87.8569H744ZM687.571 54.2855H701.857C710.214 54.2855 717.429 59.2712 720.686 66.4284H668.729C672 59.2712 679.2 54.2855 687.557 54.2855H687.571Z" fill="white"/>
<path d="M809 32.7861C798.1 32.7861 788 36.2576 779.714 42.129V32.7861H758.286V131.358H779.714V83.5004C779.714 67.3576 792.857 54.2147 809 54.2147H819.714V32.7861H809Z" fill="white"/>
<path d="M893.214 0.942871H869.729L820.457 132.371H843.343L858.471 92.0143H904.486L919.614 132.371H942.5L893.214 0.942871ZM866.514 70.5857L881.471 30.6572L896.443 70.5857H866.514Z" fill="white"/>
<path d="M1019.71 32.8575V41.5004C1011.79 36.0433 1002.19 32.8433 991.857 32.8433C964.686 32.8433 942.571 54.9575 942.571 82.129C942.571 109.3 964.686 131.415 991.857 131.415C1002.19 131.415 1011.79 128.215 1019.71 122.758V137.629C1019.71 149.172 1010.33 158.558 998.786 158.558H953.286V179.986H998.786C1022.14 179.986 1041.14 160.986 1041.14 137.629V32.8575H1019.71ZM991.857 110C976.5 110 964 97.5004 964 82.1433C964 66.7861 976.5 54.2861 991.857 54.2861C1007.21 54.2861 1019.71 66.7861 1019.71 82.1433C1019.71 97.5004 1007.21 110 991.857 110Z" fill="white"/>
<path d="M1154 87.8569V74.9998C1154 51.7569 1135.1 32.8569 1111.86 32.8569H1097.57C1074.33 32.8569 1055.43 51.7569 1055.43 74.9998V89.2855C1055.43 112.528 1074.33 131.428 1097.57 131.428H1111.86C1130.61 131.428 1146.54 119.114 1151.99 102.143H1128.07C1124.27 106.914 1118.43 110 1111.86 110H1097.57C1086.14 110 1076.86 100.714 1076.86 89.2855V87.8569H1154ZM1097.57 54.2855H1111.86C1120.21 54.2855 1127.43 59.2712 1130.69 66.4284H1078.73C1082 59.2712 1089.2 54.2855 1097.56 54.2855H1097.57Z" fill="white"/>
<path d="M1252.57 131.428H1231.14V74.9998C1231.14 63.5712 1221.86 54.2855 1210.43 54.2855C1199 54.2855 1189.71 63.5712 1189.71 74.9998V131.428H1168.29V74.9998C1168.29 51.7569 1187.19 32.8569 1210.43 32.8569C1233.67 32.8569 1252.57 51.7569 1252.57 74.9998V131.428Z" fill="white"/>
<path d="M1339.71 53.5714V32.1429H1314V10H1292.57V32.1429H1266.86V53.5714H1292.57V100.786C1292.57 117.686 1306.31 131.429 1323.21 131.429H1339.71V110H1323.21C1318.14 110 1314 105.871 1314 100.786V53.5714H1339.71Z" fill="white"/>
<g opacity="0.5">
<path d="M1489.89 88.2715C1483.99 101.514 1470.7 110.771 1455.3 110.771C1434.43 110.771 1417.44 93.7858 1417.44 72.9143V60.0572C1417.44 39.1858 1434.43 22.2001 1455.3 22.2001C1470.71 22.2001 1483.99 31.4572 1489.89 44.7001H1512.56C1505.77 19.4286 1482.69 0.771484 1455.3 0.771484C1422.61 0.771484 1396.01 27.3715 1396.01 60.0572V72.9143C1396.01 105.6 1422.61 132.2 1455.3 132.2C1482.69 132.2 1505.77 113.543 1512.56 88.2715H1489.89Z" fill="white"/>
<path d="M1572.43 131.428H1571.86C1547.2 131.428 1527.14 111.371 1527.14 86.7141V77.5712C1527.14 52.9141 1547.2 32.8569 1571.86 32.8569H1572.43C1597.09 32.8569 1617.14 52.9141 1617.14 77.5712V86.7141C1617.14 111.371 1597.09 131.428 1572.43 131.428ZM1571.86 54.2855C1559.01 54.2855 1548.57 64.7284 1548.57 77.5712V86.7141C1548.57 99.5569 1559.01 110 1571.86 110H1572.43C1585.27 110 1595.71 99.5569 1595.71 86.7141V77.5712C1595.71 64.7284 1585.27 54.2855 1572.43 54.2855H1571.86Z" fill="white"/>
<path d="M1723.57 32.8569C1712.93 32.8569 1703.31 37.2712 1696.43 44.3569C1689.54 37.2712 1679.93 32.8569 1669.29 32.8569C1648.41 32.8569 1631.43 49.8426 1631.43 70.7141V131.428H1652.86V70.7141C1652.86 61.6569 1660.23 54.2855 1669.29 54.2855C1678.34 54.2855 1685.71 61.6569 1685.71 70.7141V131.428H1707.14V70.7141C1707.14 61.6569 1714.51 54.2855 1723.57 54.2855C1732.63 54.2855 1740 61.6569 1740 70.7141V131.428H1761.43V70.7141C1761.43 49.8426 1744.44 32.8569 1723.57 32.8569Z" fill="white"/>
<path d="M1825 32.8569C1814.67 32.8569 1805.07 36.0569 1797.14 41.5141V32.8569H1775.71V164.286H1797.14V122.771C1805.07 128.228 1814.67 131.428 1825 131.428C1852.17 131.428 1874.29 109.314 1874.29 82.1427C1874.29 54.9712 1852.17 32.8569 1825 32.8569ZM1825 110C1809.64 110 1797.14 97.4998 1797.14 82.1427C1797.14 66.7855 1809.64 54.2855 1825 54.2855C1840.36 54.2855 1852.86 66.7855 1852.86 82.1427C1852.86 97.4998 1840.36 110 1825 110Z" fill="white"/>
<path d="M1930.71 131.428C1907.47 131.428 1888.57 112.528 1888.57 89.2855V32.8569H1910V89.2855C1910 100.714 1919.29 110 1930.71 110C1942.14 110 1951.43 100.714 1951.43 89.2855V32.8569H1972.86V89.2855C1972.86 112.528 1953.96 131.428 1930.71 131.428Z" fill="white"/>
<path d="M2060 53.5714V32.1429H2034.29V10H2012.86V32.1429H1987.14V53.5714H2012.86V100.786C2012.86 117.686 2026.6 131.429 2043.5 131.429H2060V110H2043.5C2038.43 110 2034.29 105.871 2034.29 100.786V53.5714H2060Z" fill="white"/>
<path d="M2172.86 87.8569V74.9998C2172.86 51.7569 2153.96 32.8569 2130.71 32.8569H2116.43C2093.19 32.8569 2074.29 51.7569 2074.29 74.9998V89.2855C2074.29 112.528 2093.19 131.428 2116.43 131.428H2130.71C2149.47 131.428 2165.4 119.114 2170.84 102.143H2146.93C2143.13 106.914 2137.29 110 2130.71 110H2116.43C2105 110 2095.71 100.714 2095.71 89.2855V87.8569H2172.86ZM2116.43 54.2855H2130.71C2139.07 54.2855 2146.29 59.2712 2149.54 66.4284H2097.59C2100.86 59.2712 2108.06 54.2855 2116.41 54.2855H2116.43Z" fill="white"/>
<path d="M2237.86 32.7861C2226.96 32.7861 2216.86 36.2576 2208.57 42.129V32.7861H2187.14V131.358H2208.57V83.5004C2208.57 67.3576 2221.71 54.2147 2237.86 54.2147H2248.57V32.7861H2237.86Z" fill="white"/>
</g>
<path d="M257.143 64.2963C257.143 87.0927 245.191 107.111 227.146 118.499C221.224 122.273 214.617 125.094 207.583 126.769H207.561C202.665 127.956 197.577 128.571 192.317 128.571C174.251 128.571 157.895 121.234 146.157 109.38L145.9 109.104L141.945 104.736L141.881 104.651L141.774 104.524L125.653 86.5625L112.012 71.3579L89.2208 45.9744L89.0711 45.8048L89.0284 45.7411C88.1518 44.596 87.1683 43.5145 86.1206 42.4966L85.9923 42.3906C80.4976 37.1315 73.0358 33.9295 64.8257 33.9295C60.7848 33.9295 56.9149 34.7141 53.3872 36.1349C42.1624 40.6305 34.2089 51.5516 34.2089 64.2963C34.2089 81.0278 47.9565 94.642 64.8257 94.642C76.3925 94.642 86.5055 88.2378 91.7009 78.8012L103.503 91.97L115.091 104.863C103.204 119.326 85.0944 128.571 64.8257 128.571C29.0349 128.571 0.000244141 99.795 0.000244141 64.2963C0.000244141 41.5 11.9733 21.4816 29.997 10.0728C35.9407 6.29816 42.5259 3.47777 49.5601 1.8025H49.5815C54.4776 0.614971 59.5661 0 64.8257 0C82.7211 0 98.9275 7.1888 110.665 18.8308L110.922 19.1277L115.369 24.0687L115.583 24.302L131.511 42.0301L145.152 57.2347L168.157 82.8515L168.264 82.9999C169.055 84.039 169.932 84.9933 170.873 85.9051L170.98 85.99C176.496 91.3338 184.022 94.642 192.317 94.642C196.358 94.642 200.228 93.8574 203.756 92.4366C215.002 87.9409 222.934 77.0199 222.934 64.2963C222.934 47.5436 209.208 33.9295 192.317 33.9295C180.75 33.9295 170.659 40.3336 165.463 49.7703L153.64 36.6226L142.052 23.7082C153.939 9.24578 172.049 0 192.317 0C228.129 0 257.143 28.7764 257.143 64.2963Z" fill="white"/>
</svg>
