<svg width="1963" height="342" viewBox="0 0 1963 342" fill="none" xmlns="http://www.w3.org/2000/svg">
<path d="M93.6428 104.5C62.4557 104.5 40.7143 87.6986 40.7143 72.6071C40.7143 57.5157 62.4557 40.7143 93.6428 40.7143C124.83 40.7143 146.571 57.5157 146.571 72.6071H187.286C187.286 31.8929 146.164 0 93.6428 0C41.1214 0 0 31.8929 0 72.6071C0 113.321 41.1214 145.214 93.6428 145.214C124.83 145.214 146.571 162.016 146.571 177.107C146.571 192.199 124.83 209 93.6428 209C62.4557 209 40.7143 192.199 40.7143 177.107H0C0 217.821 41.1214 249.714 93.6428 249.714C146.164 249.714 187.286 217.821 187.286 177.107C187.286 136.393 146.164 104.5 93.6428 104.5Z" fill="#DCDCDC"/>
<path d="M294.5 249.714C250.339 249.714 214.429 213.804 214.429 169.642V62.428H255.143V169.642C255.143 191.357 272.786 208.999 294.5 208.999C316.214 208.999 333.857 191.357 333.857 169.642V62.428H374.572V169.642C374.572 213.804 338.662 249.714 294.5 249.714Z" fill="#DCDCDC"/>
<path d="M495.357 62.428C475.733 62.428 457.493 68.508 442.429 78.8765V62.428H401.714V312.142H442.429V233.265C457.493 243.634 475.733 249.714 495.357 249.714C546.983 249.714 589 207.697 589 156.071C589 104.445 546.983 62.428 495.357 62.428ZM495.357 208.999C466.179 208.999 442.429 185.249 442.429 156.071C442.429 126.892 466.179 103.142 495.357 103.142C524.536 103.142 548.286 126.892 548.286 156.071C548.286 185.249 524.536 208.999 495.357 208.999Z" fill="#DCDCDC"/>
<path d="M803.428 166.928V142.499C803.428 98.338 767.519 62.428 723.357 62.428H696.214C652.053 62.428 616.143 98.338 616.143 142.499V169.642C616.143 213.804 652.053 249.714 696.214 249.714H723.357C758.996 249.714 789.26 226.317 799.601 194.071H754.164C746.944 203.137 735.843 208.999 723.357 208.999H696.214C674.5 208.999 656.857 191.357 656.857 169.642V166.928H803.428ZM696.214 103.142H723.357C739.236 103.142 752.943 112.615 759.131 126.214H660.413C666.629 112.615 680.308 103.142 696.187 103.142H696.214Z" fill="#DCDCDC"/>
<path d="M926.928 62.2939C906.218 62.2939 887.028 68.8897 871.286 80.0454V62.2939H830.571V249.58H871.286V158.651C871.286 127.98 896.257 103.008 926.928 103.008H947.286V62.2939H926.928Z" fill="#DCDCDC"/>
<path d="M1114.08 1.79224H1069.46L975.84 251.507H1019.32L1048.07 174.828H1135.49L1164.24 251.507H1207.72L1114.08 1.79224ZM1063.35 134.114L1091.77 58.2494L1120.21 134.114H1063.35Z" fill="#DCDCDC"/>
<path d="M1354.43 62.4292V78.8507C1339.36 68.4821 1321.12 62.4021 1301.5 62.4021C1249.87 62.4021 1207.86 104.419 1207.86 156.045C1207.86 207.671 1249.87 249.688 1301.5 249.688C1321.12 249.688 1339.36 243.608 1354.43 233.239V261.495C1354.43 283.426 1336.6 301.259 1314.66 301.259H1228.21V341.974H1314.66C1359.04 341.974 1395.14 305.874 1395.14 261.495V62.4292H1354.43ZM1301.5 209.001C1272.32 209.001 1248.57 185.251 1248.57 156.072C1248.57 126.894 1272.32 103.144 1301.5 103.144C1330.68 103.144 1354.43 126.894 1354.43 156.072C1354.43 185.251 1330.68 209.001 1301.5 209.001Z" fill="#DCDCDC"/>
<path d="M1609.57 166.928V142.499C1609.57 98.338 1573.66 62.428 1529.5 62.428H1502.36C1458.2 62.428 1422.29 98.338 1422.29 142.499V169.642C1422.29 213.804 1458.2 249.714 1502.36 249.714H1529.5C1565.14 249.714 1595.4 226.317 1605.74 194.071H1560.31C1553.09 203.137 1541.99 208.999 1529.5 208.999H1502.36C1480.64 208.999 1463 191.357 1463 169.642V166.928H1609.57ZM1502.36 103.142H1529.5C1545.38 103.142 1559.09 112.615 1565.27 126.214H1466.56C1472.77 112.615 1486.45 103.142 1502.33 103.142H1502.36Z" fill="#DCDCDC"/>
<path d="M1796.86 249.714H1756.14V142.499C1756.14 120.785 1738.5 103.142 1716.79 103.142C1695.07 103.142 1677.43 120.785 1677.43 142.499V249.714H1636.71V142.499C1636.71 98.338 1672.62 62.428 1716.79 62.428C1760.95 62.428 1796.86 98.338 1796.86 142.499V249.714Z" fill="#DCDCDC"/>
<path d="M1962.43 145.214V104.499H1913.57V62.428H1872.86V104.499H1824V145.214H1872.86V191.492C1872.86 223.602 1898.97 249.714 1931.08 249.714H1962.43V208.999H1931.08C1921.44 208.999 1913.57 201.155 1913.57 191.492V145.214H1962.43Z" fill="#DCDCDC"/>
</svg>
